<?xml version="1.0" encoding="UTF-8" standalone="no"?>
<svg
   xmlns:dc="http://purl.org/dc/elements/1.1/"
   xmlns:cc="http://creativecommons.org/ns#"
   xmlns:rdf="http://www.w3.org/1999/02/22-rdf-syntax-ns#"
   xmlns:svg="http://www.w3.org/2000/svg"
   xmlns="http://www.w3.org/2000/svg"
   xmlns:xlink="http://www.w3.org/1999/xlink"
   xmlns:sodipodi="http://sodipodi.sourceforge.net/DTD/sodipodi-0.dtd"
   xmlns:inkscape="http://www.inkscape.org/namespaces/inkscape"
   sodipodi:docname="icono.svg"
   inkscape:version="1.0.1 (3bc2e813f5, 2020-09-07)"
   id="svg4644"
   version="1.1"
   viewBox="0 0 50.799999 50.799999"
   height="50.799999mm"
   width="50.799999mm">
  <defs
     id="defs4638">
    <linearGradient
       inkscape:collect="always"
       xlink:href="#linearGradient5672"
       id="linearGradient3711"
       gradientUnits="userSpaceOnUse"
       gradientTransform="matrix(4.001853,0,0,4.001853,5.6692913e-5,-7.5590551e-5)"
       x1="-7.1054274e-15"
       y1="0"
       x2="53.974998"
       y2="53.974998" />
    <linearGradient
       x1="55"
       y1="73.5"
       x2="5"
       y2="23.5"
       gradientUnits="userSpaceOnUse"
       gradientTransform="matrix(0.90666664,0,0,-0.90670085,63.691863,261.14997)"
       spreadMethod="pad"
       id="linearGradient5672">
      <stop
         id="stop5668"
         offset="0"
         style="stop-opacity:1;stop-color:#e5e5ff" />
      <stop
         id="stop5670"
         offset="1"
         style="stop-opacity:1;stop-color:#9999ff" />
    </linearGradient>
  </defs>
  <sodipodi:namedview
     inkscape:window-maximized="1"
     inkscape:window-y="-8"
     inkscape:window-x="-8"
     inkscape:window-height="705"
     inkscape:window-width="1366"
     showgrid="false"
     inkscape:document-rotation="0"
     inkscape:current-layer="layer1"
     inkscape:document-units="mm"
     inkscape:cy="150.31477"
     inkscape:cx="148.0755"
     inkscape:zoom="1.4"
     inkscape:pageshadow="2"
     inkscape:pageopacity="0.0"
     borderopacity="1.0"
     bordercolor="#666666"
     pagecolor="#ffffff"
     id="base" />
  <metadata
     id="metadata4641">
    <rdf:RDF>
      <cc:Work
         rdf:about="">
        <dc:format>image/svg+xml</dc:format>
        <dc:type
           rdf:resource="http://purl.org/dc/dcmitype/StillImage" />
        <dc:title></dc:title>
      </cc:Work>
    </rdf:RDF>
  </metadata>
  <g
     transform="translate(-88.748807,-263.37382)"
     id="layer1"
     inkscape:groupmode="layer"
     inkscape:label="Capa 1">
    <path
       id="rect3566"
       style="opacity:0.99;fill:url(#linearGradient3711);fill-opacity:1;stroke:none;stroke-width:6.94174;stroke-linecap:round;stroke-linejoin:round;paint-order:stroke fill markers"
       d="M 49.794922,12 C 28.856339,12 12,28.856339 12,49.794922 V 166.20508 C 12,187.14366 28.856339,204 49.794922,204 H 166.20508 C 187.14366,204 204,187.14366 204,166.20508 V 49.794922 C 204,28.856339 187.14366,12 166.20508,12 Z"
       transform="matrix(0.26458333,0,0,0.26458333,85.573807,260.19882)" />
    <g
       id="g3591"
       transform="matrix(5.0469967,0,0,5.0469967,-22.057013,52.079534)">
      <g
         id="g3578"
         transform="translate(-0.00115476)">
        <path
           d="m 26.000529,45.812913 c -1e-6,0.101576 -0.0084,0.19929 -0.02508,0.293139 -0.01671,0.09385 -0.04051,0.176689 -0.0714,0.248527 -0.03089,0.07182 -0.06651,0.127178 -0.106854,0.166051 -0.04035,0.03887 -0.08237,0.05832 -0.126046,0.05832 -0.04368,-3e-6 -0.0857,-0.01944 -0.12605,-0.05832 -0.04035,-0.03887 -0.07596,-0.09423 -0.106855,-0.166053 -0.03089,-0.07184 -0.05468,-0.154679 -0.07141,-0.248528 -0.01671,-0.09386 -0.02508,-0.191562 -0.02507,-0.29314 -2e-6,-0.101587 0.0084,-0.199302 0.02507,-0.293156 0.01671,-0.09386 0.04051,-0.17669 0.07141,-0.248521 0.03089,-0.07183 0.0665,-0.127178 0.106857,-0.166049 0.04035,-0.03887 0.08237,-0.05831 0.126048,-0.05831 0.04368,0 0.08569,0.01944 0.126046,0.05831 0.04035,0.03887 0.07596,0.09423 0.106856,0.166057 0.03089,0.07182 0.05469,0.154664 0.0714,0.248515 0.01671,0.09385 0.02508,0.191567 0.02508,0.293154 z"
           style="opacity:0.99;fill:#000000;stroke:#000000;stroke-width:0.4;stroke-linecap:butt;stroke-linejoin:miter;stroke-miterlimit:10;stroke-dasharray:none;stroke-opacity:1"
           id="path3574" />
        <path
           d="m 28.635544,45.812913 c -3e-6,0.101576 -0.0084,0.19929 -0.02508,0.293139 -0.01671,0.09385 -0.04051,0.176689 -0.0714,0.248527 -0.03089,0.07182 -0.06651,0.127178 -0.106858,0.166051 -0.04035,0.03887 -0.08237,0.05832 -0.126043,0.05832 -0.04368,-3e-6 -0.0857,-0.01944 -0.126051,-0.05832 -0.04035,-0.03887 -0.07596,-0.09423 -0.106858,-0.166053 -0.03089,-0.07184 -0.05468,-0.154679 -0.0714,-0.248528 -0.01671,-0.09386 -0.02507,-0.191562 -0.02507,-0.29314 -3e-6,-0.101587 0.0084,-0.199302 0.02507,-0.293156 0.01671,-0.09386 0.04051,-0.17669 0.0714,-0.248521 0.03089,-0.07183 0.06651,-0.127178 0.106857,-0.166049 0.04035,-0.03887 0.08237,-0.05831 0.126051,-0.05831 0.04368,0 0.08569,0.01944 0.126044,0.05831 0.04035,0.03887 0.07597,0.09423 0.106858,0.166057 0.03089,0.07182 0.05469,0.154664 0.0714,0.248515 0.01671,0.09385 0.02508,0.191567 0.02508,0.293154 z"
           style="opacity:0.99;fill:#000000;stroke:#000000;stroke-width:0.4;stroke-linecap:butt;stroke-linejoin:miter;stroke-miterlimit:10;stroke-dasharray:none;stroke-opacity:1"
           id="path3576" />
      </g>
      <g
         id="g3589"
         transform="translate(0.00402811)">
        <path
           style="color:#000000;font-style:normal;font-variant:normal;font-weight:normal;font-stretch:normal;font-size:medium;line-height:normal;font-family:sans-serif;font-variant-ligatures:normal;font-variant-position:normal;font-variant-caps:normal;font-variant-numeric:normal;font-variant-alternates:normal;font-variant-east-asian:normal;font-feature-settings:normal;font-variation-settings:normal;text-indent:0;text-align:start;text-decoration:none;text-decoration-line:none;text-decoration-style:solid;text-decoration-color:#000000;letter-spacing:normal;word-spacing:normal;text-transform:none;writing-mode:lr-tb;direction:ltr;text-orientation:mixed;dominant-baseline:auto;baseline-shift:baseline;text-anchor:start;white-space:normal;shape-padding:0;shape-margin:0;inline-size:0;clip-rule:nonzero;display:inline;overflow:visible;visibility:visible;opacity:0.99;isolation:auto;mix-blend-mode:normal;color-interpolation:sRGB;color-interpolation-filters:linearRGB;solid-color:#000000;solid-opacity:1;vector-effect:none;fill:#000000;fill-opacity:1;fill-rule:nonzero;stroke:none;stroke-width:0.4;stroke-linecap:butt;stroke-linejoin:round;stroke-miterlimit:10;stroke-dasharray:none;stroke-dashoffset:0;stroke-opacity:1;paint-order:normal;color-rendering:auto;image-rendering:auto;shape-rendering:auto;text-rendering:auto;enable-background:accumulate;stop-color:#000000"
           d="m 23.699219,47.330078 -0.28125,0.285156 c 0.903727,0.897387 2.237705,1.333922 3.566406,1.333985 1.328701,6.2e-5 2.662767,-0.43667 3.566406,-1.333985 l -0.28125,-0.283203 c -0.80902,0.803358 -2.044721,1.216856 -3.285156,1.216797 -1.240435,-5.8e-5 -2.476029,-0.4153 -3.285156,-1.21875 z"
           id="path3580" />
        <g
           id="g3587"
           style="opacity:0.99;fill:none;stroke:#000000;stroke-width:0.4;stroke-miterlimit:10;stroke-dasharray:none">
          <path
             style="color:#000000;font-style:normal;font-variant:normal;font-weight:normal;font-stretch:normal;font-size:medium;line-height:normal;font-family:sans-serif;font-variant-ligatures:normal;font-variant-position:normal;font-variant-caps:normal;font-variant-numeric:normal;font-variant-alternates:normal;font-variant-east-asian:normal;font-feature-settings:normal;font-variation-settings:normal;text-indent:0;text-align:start;text-decoration:none;text-decoration-line:none;text-decoration-style:solid;text-decoration-color:#000000;letter-spacing:normal;word-spacing:normal;text-transform:none;writing-mode:lr-tb;direction:ltr;text-orientation:mixed;dominant-baseline:auto;baseline-shift:baseline;text-anchor:start;white-space:normal;shape-padding:0;shape-margin:0;inline-size:0;clip-rule:nonzero;display:inline;overflow:visible;visibility:visible;opacity:1;isolation:auto;mix-blend-mode:normal;color-interpolation:sRGB;color-interpolation-filters:linearRGB;solid-color:#000000;solid-opacity:1;vector-effect:none;fill:none;fill-opacity:1;fill-rule:evenodd;stroke:#000000;stroke-width:0.4;stroke-linecap:butt;stroke-linejoin:miter;stroke-miterlimit:10;stroke-dasharray:none;stroke-dashoffset:0;stroke-opacity:1;color-rendering:auto;image-rendering:auto;shape-rendering:auto;text-rendering:auto;enable-background:accumulate;stop-color:#000000;stop-opacity:1"
             d="m 30.128906,47.115234 -0.07617,0.07422 0.638672,0.642578 0.07422,-0.07617 z"
             id="path3582" />
          <path
             style="color:#000000;font-style:normal;font-variant:normal;font-weight:normal;font-stretch:normal;font-size:medium;line-height:normal;font-family:sans-serif;font-variant-ligatures:normal;font-variant-position:normal;font-variant-caps:normal;font-variant-numeric:normal;font-variant-alternates:normal;font-variant-east-asian:normal;font-feature-settings:normal;font-variation-settings:normal;text-indent:0;text-align:start;text-decoration:none;text-decoration-line:none;text-decoration-style:solid;text-decoration-color:#000000;letter-spacing:normal;word-spacing:normal;text-transform:none;writing-mode:lr-tb;direction:ltr;text-orientation:mixed;dominant-baseline:auto;baseline-shift:baseline;text-anchor:start;white-space:normal;shape-padding:0;shape-margin:0;inline-size:0;clip-rule:nonzero;display:inline;overflow:visible;visibility:visible;opacity:1;isolation:auto;mix-blend-mode:normal;color-interpolation:sRGB;color-interpolation-filters:linearRGB;solid-color:#000000;solid-opacity:1;vector-effect:none;fill:none;fill-opacity:1;fill-rule:evenodd;stroke:#000000;stroke-width:0.4;stroke-linecap:butt;stroke-linejoin:miter;stroke-miterlimit:10;stroke-dasharray:none;stroke-dashoffset:0;stroke-opacity:1;color-rendering:auto;image-rendering:auto;shape-rendering:auto;text-rendering:auto;enable-background:accumulate;stop-color:#000000;stop-opacity:1"
             d="m 23.839844,47.115234 -0.636719,0.640625 0.07422,0.07422 0.638672,-0.640625 z"
             id="path3584" />
        </g>
      </g>
    </g>
  </g>
</svg>
